#!OML:ASF F:\VICON\USERDATA\INSTALL\rory3\rory3.ASF
:FULLY-SPECIFIED
:DEGREES
305
root -0.332855 22.7419 5.27913 -164.387 -3.13133 176.726
lowerback 7.51825 -1.74244 -4.48596
upperback 0.566937 -2.68274 1.86428
thorax -3.33293 -1.28106 4.73418
lowerneck -16.4577 -1.56956 -8.014
upperneck 39.2945 5.43436 -0.0581238
head 16.9919 2.36442 2.83185
rclavicle -6.55989e-015 -7.95139e-016
rhumerus -31.4469 -3.46362 -80.5849
rradius 38.5451
rwrist 17.8507
rhand -20.0116 3.16638
rfingers 7.12502
rthumb 6.32861 -26.7191
lclavicle -6.55989e-015 -7.95139e-016
lhumerus -26.6189 5.96973 83.9369
lradius 35.3118
lwrist -1.14977
lhand -17.8018 24.4698
lfingers 7.12502
lthumb 8.46157 54.2803
rfemur -55.1623 0.034861 25.7103
rtibia 71.4868
rfoot -27.5934 4.08475
rtoes 12.9617
lfemur -12.3517 -0.508946 -26.7029
ltibia 16.6948
lfoot 17.6979 -6.47058
ltoes -25.3956
306
root -0.330305 22.8171 5.22163 -164.429 -3.0811 176.558
lowerback 7.4771 -1.72157 -4.62756
upperback 0.595956 -2.66664 1.80604
thorax -3.27796 -1.27364 4.74903
lowerneck -16.3876 -1.53762 -7.90254
upperneck 39.1955 5.40191 -0.0606671
head 16.9215 2.36864 2.79738
rclavicle 1.59028e-014 -1.15295e-014
rhumerus -31.5301 -3.46522 -80.6516
rradius 38.4173
rwrist 17.81
rhand -19.8699 3.24914
rfingers 7.12502
rthumb 6.46539 -26.6322
lclavicle 1.59028e-014 -1.15295e-014
lhumerus -26.7141 5.85384 83.9359
lradius 35.0554
lwrist -1.66661
lhand -17.6977 24.4261
lfingers 7.12502
lthumb 8.56211 54.2325
rfemur -54.4736 0.138658 25.419
rtibia 70.6542
rfoot -27.5338 3.61348
rtoes 11.2627
lfemur -12.5597 -0.651102 -26.6716
ltibia 16.8591
lfoot 20.0395 -6.07539
ltoes -25.7082
307
root -0.329513 22.8947 5.16856 -164.436 -3.05072 176.563
lowerback 7.46125 -1.68232 -4.54399
upperback 0.595669 -2.60699 1.79277
thorax -3.2805 -1.24504 4.68167
lowerneck -16.3756 -1.53578 -7.90794
upperneck 39.1369 5.34819 0.012865
head 16.8837 2.35529 2.81707
rclavicle -2.88238e-014 1.23246e-014
rhumerus -31.5911 -3.35977 -80.696
rradius 38.3111
rwrist 17.7277
rhand -19.7724 3.24499
rfingers 7.12502
rthumb 6.5595 -26.6334
lclavicle -2.88238e-014 1.23246e-014
lhumerus -26.8948 5.66002 83.9665
lradius 34.9813
lwrist -1.96826
lhand -17.6015 24.3755
lfingers 7.12502
lthumb 8.65487 54.178
rfemur -53.7527 0.270202 25.3108
rtibia 69.7202
rfoot -27.3093 3.55595
rtoes 11.216
lfemur -12.9857 -0.747686 -26.4609
ltibia 17.3056
lfoot 22.0862 -5.25538
ltoes -24.8968
308
root -0.327473 22.9743 5.11879 -164.486 -3.16367 176.621
lowerback 7.52808 -1.69781 -4.37782
upperback 0.621327 -2.61802 1.80249
thorax -3.29688 -1.2537 4.60119
lowerneck -16.5064 -1.54818 -7.92408
upperneck 39.0793 5.29675 0.0279546
head 16.8861 2.32388 2.81582
rclavicle 7.95139e-016 -7.95139e-016
rhumerus -31.5809 -3.25806 -80.7753
rradius 38.2074
rwrist 17.7556
rhand -19.7319 3.19895
rfingers 7.12502
rthumb 6.59867 -26.6782
lclavicle 7.95139e-016 -7.95139e-016
lhumerus -26.9963 5.47646 83.9715
lradius 34.8944
lwrist -2.23723
lhand -17.6729 24.0788
lfingers 7.12502
lthumb 8.58598 53.8842
rfemur -52.9251 0.283134 25.3028
rtibia 68.7011
rfoot -27.1094 3.68992
rtoes 12.3762
lfemur -13.5419 -0.815719 -26.1656
ltibia 18.1249
lfoot 23.8248 -4.51342
ltoes -24.0755
309
root -0.324313 23.051 5.06944 -164.524 -3.35003 176.58
lowerback 7.55419 -1.74967 -4.2961
upperback 0.633158 -2.68213 1.80089
thorax -3.29589 -1.28738 4.56009
lowerneck -16.5747 -1.57883 -7.95481
upperneck 38.9853 5.21458 0.0255487
head 16.8557 2.27775 2.80018
rclavicle -2.14687e-014 1.19271e-014
rhumerus -31.5302 -3.17625 -80.8353
rradius 38.0252
rwrist 17.8383
rhand -19.6765 3.23875
rfingers 7.12502
rthumb 6.65212 -26.6368
lclavicle -2.14687e-014 1.19271e-014
lhumerus -27.112 5.38338 83.968
lradius 34.846
lwrist -2.51783
lhand -17.731 23.6699
lfingers 7.12502
lthumb 8.52998 53.4776
rfemur -52.0866 0.136406 25.2456
rtibia 67.6196
rfoot -26.9435 3.90335
rtoes 13.881
lfemur -14.2616 -0.749829 -25.9991
ltibia 19.3571
lfoot 25.0976 -4.40968
ltoes -21.4081
310
root -0.320516 23.1318 5.01993 -164.595 -3.4822 176.555
lowerback 7.61756 -1.75041 -4.25706
upperback 0.576544 -2.68017 1.84029
thorax -3.39031 -1.28225 4.58372
lowerneck -16.3823 -1.64178 -8.09543
upperneck 38.9286 5.13216 0.070259
head 16.7781 2.2412 2.82303
rclavicle 2.3059e-014 3.97569e-015
rhumerus -31.6832 -2.97157 -80.8021
rradius 37.9759
rwrist 17.7761
rhand -19.6227 3.12847
rfingers 7.12502
rthumb 6.70404 -26.7454
lclavicle 2.3059e-014 3.97569e-015
lhumerus -27.3818 5.34354 84.0475
lradius 34.9002
lwrist -2.68354
lhand -17.7231 23.6663
lfingers 7.12502
lthumb 8.53757 53.4737
rfemur -51.186 0.0383271 25.211
rtibia 66.4798
rfoot -26.7295 3.84418
rtoes 14.3466
lfemur -15.053 -0.594756 -25.8665
ltibia 20.9066
lfoot 25.9303 -4.56371
ltoes -20.7541
311
root -0.315628 23.2119 4.97346 -164.627 -3.60715 176.528
lowerback 7.60212 -1.74426 -4.27273
upperback 0.585621 -2.67195 1.88186
thorax -3.37044 -1.27884 4.63435
lowerneck -16.3906 -1.67456 -8.13573
upperneck 38.9164 5.09665 0.0666973
head 16.7758 2.22101 2.82204
rclavicle 8.34896e-015 1.11319e-014
rhumerus -31.6693 -2.744 -80.7726
rradius 37.9442
rwrist 17.6881
rhand -19.4042 2.94106
rfingers 7.12502
rthumb 6.91502 -26.926
lclavicle 8.34896e-015 1.11319e-014
lhumerus -27.4726 5.21126 84.1322
lradius 34.8897
lwrist -2.6855
lhand -17.742 23.6608
lfingers 7.12502
lthumb 8.51932 53.4689
rfemur -50.3071 -0.0177376 25.1573
rtibia 65.3053
rfoot -26.4257 3.77543
rtoes 14.1408
lfemur -15.9969 -0.419073 -25.7427
ltibia 22.7388
lfoot 26.5509 -4.36085
ltoes -19.7439
312
root -0.311746 23.2891 4.92777 -164.718 -3.83343 176.484
lowerback 7.61538 -1.76714 -4.24414
upperback 0.629295 -2.70221 1.8792
thorax -3.33057 -1.29722 4.61756
lowerneck -16.4775 -1.71475 -8.11905
upperneck 38.9323 4.99339 0.147095
head 16.8066 2.18731 2.83861
rclavicle 7.95139e-015 3.57812e-015
rhumerus -31.559 -2.77682 -80.7407
rradius 37.8004
rwrist 17.8231
rhand -19.2234 3.30207
rfingers 7.12502
rthumb 7.08947 -26.5592
lclavicle 7.95139e-015 3.57812e-015
lhumerus -27.4842 5.08347 84.1454
lradius 34.8349
lwrist -2.60832
lhand -17.8236 23.6991
lfingers 7.12502
lthumb 8.44058 53.5104
rfemur -49.318 -0.130582 25.0829
rtibia 64.086
rfoot -26.1821 3.81075
rtoes 13.9359
lfemur -16.9535 -0.249284 -25.6308
ltibia 24.8439
lfoot 26.876 -3.93498
ltoes -18.7311
313
root -0.307715 23.3654 4.87964 -164.894 -4.10121 176.492
lowerback 7.68379 -1.7889 -4.13028
upperback 0.614624 -2.72427 1.88458
thorax -3.38665 -1.30793 4.56457
lowerneck -16.3629 -1.79568 -8.22049
upperneck 39.02 4.86661 0.320341
head 16.8224 2.15515 2.91437
rclavicle 5.76476e-015 3.18055e-015
rhumerus -31.7145 -2.67837 -80.7168
rradius 37.8045
rwrist 17.8044
rhand -19.1266 3.41684
rfingers 7.12502
rthumb 7.18299 -26.4413
lclavicle 5.76476e-015 3.18055e-015
lhumerus -27.5846 5.0556 84.1241
lradius 34.7937
lwrist -2.5958
lhand -17.7111 23.8145
lfingers 7.12502
lthumb 8.5491 53.6214
rfemur -48.2261 -0.280858 25.0744
rtibia 62.8484
rfoot -25.9518 3.85303
rtoes 14.4909
lfemur -17.8422 0.0215414 -25.5082
ltibia 27.128
lfoot 26.9224 -3.88795
ltoes -20.4702
314
root -0.301384 23.4503 4.83333 -165.025 -4.30387 176.588
lowerback 7.71689 -1.81634 -3.99652
upperback 0.607705 -2.75016 1.9216
thorax -3.41397 -1.32199 4.53195
lowerneck -16.3221 -1.79042 -8.21108
upperneck 39.0817 4.88201 0.369429
head 16.8423 2.17647 2.94138
rclavicle 1.11319e-014 -5.96354e-015
rhumerus -31.7646 -2.50702 -80.7576
rradius 37.7982
rwrist 17.8435
rhand -19.0672 3.18487
rfingers 7.12502
rthumb 7.24029 -26.6713
lclavicle 1.11319e-014 -5.96354e-015
lhumerus -27.5805 5.19294 84.0331
lradius 34.678
lwrist -2.66022
lhand -17.6262 23.8567
lfingers 7.12502
lthumb 8.63108 53.6602
rfemur -47.205 -0.334546 25.1464
rtibia 61.5747
rfoot -25.6129 3.83276
rtoes 15.4471
lfemur -18.8458 0.384436 -25.3124
ltibia 29.5505
lfoot 27.0578 -3.70744
ltoes -23.2826
